<?xml version="1.0" encoding="UTF-8"?>
<svg version="1.1" xmlns="http://www.w3.org/2000/svg" width="255" height="256">
<path d="M0 0 C1.02298187 -0.0071553 2.04596375 -0.01431061 3.09994507 -0.02168274 C4.22710937 -0.02437164 5.35427368 -0.02706055 6.51559448 -0.02983093 C7.6996286 -0.03640213 8.88366272 -0.04297333 10.10357666 -0.04974365 C14.04152782 -0.06952915 17.97946562 -0.0811607 21.91744995 -0.09111023 C23.27728165 -0.09515932 24.63711314 -0.09927628 25.99694443 -0.10346031 C32.39779128 -0.12253177 38.79862658 -0.13674862 45.19949639 -0.14507228 C52.55613933 -0.15479863 59.91247767 -0.18098795 67.26901352 -0.22157317 C72.97116994 -0.25193462 78.67324021 -0.26656064 84.37547576 -0.26985329 C87.77205214 -0.27218466 91.168304 -0.28088808 94.56479263 -0.30631447 C108.66416422 -0.39731752 121.70166358 -0.40917434 135.15963745 4.14717102 C135.97442566 4.39163971 136.78921387 4.6361084 137.62869263 4.88798523 C152.29405703 9.39596498 164.22436702 17.44822274 175.15963745 28.14717102 C175.74358276 28.68599915 176.32752808 29.22482727 176.9291687 29.77998352 C178.15963745 31.14717102 178.15963745 31.14717102 178.15963745 33.14717102 C178.71651245 33.33279602 179.27338745 33.51842102 179.84713745 33.70967102 C193.166366 41.98919147 199.05190892 66.18903105 202.49557495 80.68623352 C203.06177493 83.63713458 203.2150557 86.16566908 203.15963745 89.14717102 C203.48963745 89.47717102 203.81963745 89.80717102 204.15963745 90.14717102 C205.42338622 98.37388372 205.40322213 106.59259585 205.40963745 114.89717102 C205.41031219 115.67962189 205.41098694 116.46207275 205.41168213 117.26823425 C205.3949962 129.45317064 204.87715975 141.22323951 202.15963745 153.14717102 C201.99334839 153.90159485 201.82705933 154.65601868 201.6557312 155.43330383 C195.84944279 180.92721089 182.14243973 205.13443552 159.77682495 219.60420227 C147.17837671 227.03164564 132.08359112 234.1743899 117.15963745 234.14717102 C116.82963745 234.47717102 116.49963745 234.80717102 116.15963745 235.14717102 C108.38602288 236.52378696 100.50588885 236.34872205 92.63619995 236.38545227 C91.52405687 236.39156556 91.52405687 236.39156556 90.38944626 236.39780235 C86.46811971 236.41855625 82.5468271 236.43290616 78.62545776 236.44233704 C74.6020236 236.45340689 70.57914155 236.48784378 66.55590248 236.52750874 C63.43641204 236.55378522 60.31705152 236.56203834 57.19746017 236.56561852 C55.71524685 236.57045237 54.23303806 236.58197365 52.7509346 236.60065651 C44.34002516 236.70013504 36.59843942 236.56274221 29.15963745 232.14717102 C26.72213745 229.58467102 26.72213745 229.58467102 25.15963745 227.14717102 C24.64401245 226.67279602 24.12838745 226.19842102 23.59713745 225.70967102 C19.99288787 221.79200844 18.38849341 217.32517858 18.53463745 211.99092102 C20.23201599 204.26784869 24.51410775 195.69052336 30.15963745 190.14717102 C30.81963745 189.15717102 31.47963745 188.16717102 32.15963745 187.14717102 C32.81963745 186.48717102 33.47963745 185.82717102 34.15963745 185.14717102 C34.59276245 184.15717102 34.59276245 184.15717102 35.03463745 183.14717102 C36.15963745 181.14717102 36.15963745 181.14717102 38.22213745 180.14717102 C38.86151245 179.81717102 39.50088745 179.48717102 40.15963745 179.14717102 C40.32463745 178.48717102 40.48963745 177.82717102 40.65963745 177.14717102 C40.82463745 176.48717102 40.98963745 175.82717102 41.15963745 175.14717102 C42.49133235 174.4772375 43.82497962 173.81118209 45.15963745 173.14717102 C46.48818145 171.99891849 47.7712513 170.79681831 49.0151062 169.55732727 C49.71957886 168.85543274 50.42405151 168.15353821 51.14987183 167.43037415 C51.87496948 166.69754211 52.60006714 165.96471008 53.34713745 165.20967102 C54.08383667 164.48070618 54.82053589 163.75174133 55.57955933 163.00068665 C56.63046753 161.94591125 56.63046753 161.94591125 57.7026062 160.86982727 C58.66203125 159.90701843 58.66203125 159.90701843 59.64083862 158.92475891 C61.37877714 157.1161494 61.37877714 157.1161494 62.15963745 154.14717102 C64.15963745 155.14717102 64.15963745 155.14717102 66.15963745 157.14717102 C69.30404163 156.95739041 72.37181089 156.62295905 75.48580933 156.1608429 C79.43325121 155.73525322 80.90328713 155.95287376 84.11276245 158.38545227 C86.3743131 161.43681928 86.70071925 163.31307132 86.47213745 167.08467102 C85.99896655 170.20759897 85.0665215 173.1242242 84.15963745 176.14717102 C84.48963745 176.80717102 84.81963745 177.46717102 85.15963745 178.14717102 C86.48994995 177.18810852 86.48994995 177.18810852 87.84713745 176.20967102 C91.15963745 174.14717102 91.15963745 174.14717102 93.6010437 173.75654602 C96.81865042 172.99021526 98.12005329 171.68979671 100.40963745 169.33467102 C101.0954187 168.64760071 101.78119995 167.9605304 102.48776245 167.25263977 C104.16747847 165.13729647 104.75653081 163.78514833 105.15963745 161.14717102 C105.81963745 161.14717102 106.47963745 161.14717102 107.15963745 161.14717102 C107.81202904 159.75439085 108.45624297 158.3577789 109.09713745 156.95967102 C109.45678589 156.18236633 109.81643433 155.40506165 110.1869812 154.60420227 C112.10742774 149.75295378 112.29574437 145.27715704 112.28463745 140.08467102 C112.28721558 138.87681946 112.2897937 137.6689679 112.29244995 136.42451477 C112.18527426 133.77979695 111.94663882 131.6518341 111.15963745 129.14717102 C111.94338745 128.71404602 112.72713745 128.28092102 113.53463745 127.83467102 C116.84934465 125.70378782 117.92185775 123.86051012 119.15963745 120.14717102 C119.81963745 119.81717102 120.47963745 119.48717102 121.15963745 119.14717102 C121.84583777 117.8237847 122.50750206 116.48767154 123.15963745 115.14717102 C125.15963745 111.89717102 125.15963745 111.89717102 127.15963745 109.14717102 C127.81963745 109.14717102 128.47963745 109.14717102 129.15963745 109.14717102 C129.34526245 107.97154602 129.34526245 107.97154602 129.53463745 106.77217102 C130.15963745 104.14717102 130.15963745 104.14717102 132.15963745 102.14717102 C133.27748858 100.02931989 133.27748858 100.02931989 134.15963745 97.14717102 C134.81963745 96.48717102 135.47963745 95.82717102 136.15963745 95.14717102 C136.97353761 93.03079061 136.97353761 93.03079061 137.6322937 90.56904602 C137.89203979 89.65510071 138.15178589 88.7411554 138.41940308 87.79951477 C138.68430542 86.84174133 138.94920776 85.8839679 139.22213745 84.89717102 C139.62529175 83.48371399 139.62529175 83.48371399 140.03659058 82.04170227 C141.33317124 77.43091918 142.51323452 72.90341977 143.15963745 68.14717102 C140.02765543 67.14317228 138.0555889 67.1837342 134.89401245 68.03779602 C134.08577026 68.25306946 133.27752808 68.4683429 132.4447937 68.69013977 C131.60819214 68.92346008 130.77159058 69.1567804 129.90963745 69.39717102 C129.08850464 69.61502258 128.26737183 69.83287415 127.4213562 70.05732727 C122.20392487 71.47124289 117.19246257 73.17578791 112.15963745 75.14717102 C112.15963745 75.80717102 112.15963745 76.46717102 112.15963745 77.14717102 C108.82899182 78.88819033 105.80174811 80.26804086 102.15963745 81.14717102 C101.16963745 81.80717102 100.17963745 82.46717102 99.15963745 83.14717102 C96.15963745 85.14717102 96.15963745 85.14717102 94.03463745 86.08467102 C91.81468016 87.06625747 91.81468016 87.06625747 91.15963745 90.14717102 C90.20057495 90.36373352 90.20057495 90.36373352 89.22213745 90.58467102 C88.54151245 90.77029602 87.86088745 90.95592102 87.15963745 91.14717102 C86.69557495 92.10623352 86.69557495 92.10623352 86.22213745 93.08467102 C85.15963745 95.14717102 85.15963745 95.14717102 83.1635437 96.25263977 C79.10066303 97.46252231 75.25122441 97.44184719 71.03463745 97.52217102 C63.15108209 97.80071528 54.66350303 98.19605258 48.44088745 103.65498352 C47.06345325 105.13672984 47.06345325 105.13672984 46.15963745 107.14717102 C45.52026245 107.25029602 44.88088745 107.35342102 44.22213745 107.45967102 C43.54151245 107.68654602 42.86088745 107.91342102 42.15963745 108.14717102 C41.44235967 109.79269064 40.77638517 111.46139391 40.15963745 113.14717102 C39.16963745 113.80717102 38.17963745 114.46717102 37.15963745 115.14717102 C36.66463745 116.63217102 36.66463745 116.63217102 36.15963745 118.14717102 C35.16963745 118.64217102 35.16963745 118.64217102 34.15963745 119.14717102 C33.82963745 119.80717102 33.49963745 120.46717102 33.15963745 121.14717102 C32.80901245 121.78654602 32.45838745 122.42592102 32.09713745 123.08467102 C30.95273598 125.22475907 30.95273598 125.22475907 31.15963745 128.14717102 C31.69330933 127.85842102 32.2269812 127.56967102 32.77682495 127.27217102 C38.44885963 124.44596689 43.80460433 122.87387016 50.15963745 124.14717102 C52.62688405 126.05569137 53.10459536 126.93617633 53.90963745 130.02217102 C54.15411216 133.07810483 53.81080224 135.18075364 53.15963745 138.14717102 C53.01047338 142.32376507 53.17422969 146.08236402 54.15963745 150.14717102 C53.54088745 150.37404602 52.92213745 150.60092102 52.28463745 150.83467102 C49.9446432 151.97823685 49.9446432 151.97823685 49.28463745 154.52217102 C47.7527662 158.09653728 45.37065887 159.05017744 42.15963745 161.14717102 C41.13658797 162.79978941 40.13347691 164.46508467 39.15963745 166.14717102 C37.22213745 167.20967102 37.22213745 167.20967102 35.15963745 168.14717102 C33.05372672 170.07257511 31.43740198 171.59164197 30.15963745 174.14717102 C29.23151245 174.36373352 29.23151245 174.36373352 28.28463745 174.58467102 C25.75779268 175.25354169 24.82173958 176.16847801 23.15963745 178.14717102 C22.82963745 178.80717102 22.49963745 179.46717102 22.15963745 180.14717102 C21.16963745 180.47717102 20.17963745 180.80717102 19.15963745 181.14717102 C17.67463745 182.13717102 17.67463745 182.13717102 16.15963745 183.14717102 C15.16963745 183.47717102 14.17963745 183.80717102 13.15963745 184.14717102 C12.23151245 185.13717102 12.23151245 185.13717102 11.28463745 186.14717102 C8.77230739 188.51171696 7.54266016 188.75379629 4.15963745 189.14717102 C2.39619995 189.54935852 2.39619995 189.54935852 0.59713745 189.95967102 C-2.84036255 190.14717102 -2.84036255 190.14717102 -5.02514267 188.62791061 C-7.43556818 185.3337433 -7.38599942 182.57039084 -7.32138062 178.64283752 C-7.32479831 177.88396264 -7.32821601 177.12508775 -7.33173728 176.34321666 C-7.3383295 173.7986435 -7.31631889 171.25512366 -7.29446411 168.71064758 C-7.29333592 166.88742091 -7.29396894 165.06419241 -7.29623413 163.2409668 C-7.29738331 158.2887235 -7.27384095 153.33686656 -7.2459383 148.38471317 C-7.22095865 143.21039849 -7.21858536 138.03607527 -7.21383667 132.86170959 C-7.20139679 123.06215909 -7.16856144 113.26278676 -7.12843871 103.46331477 C-7.08375253 92.30747392 -7.06174189 81.15162462 -7.04165697 69.99571657 C-6.99982974 47.04610255 -6.92945796 24.09664676 -6.84036255 1.14717102 C-4.37824241 -0.08388905 -2.75421919 0.01319823 0 0 Z M50.15963745 47.14717102 C49.54088745 47.93092102 48.92213745 48.71467102 48.28463745 49.52217102 C46.15963745 52.14717102 46.15963745 52.14717102 44.15963745 54.14717102 C45.33526245 55.07529602 45.33526245 55.07529602 46.53463745 56.02217102 C49.15963745 58.14717102 49.15963745 58.14717102 51.15963745 60.14717102 C51.59276245 59.00248352 51.59276245 59.00248352 52.03463745 57.83467102 C53.15963745 55.14717102 53.15963745 55.14717102 55.15963745 52.14717102 C53.50963745 50.49717102 51.85963745 48.84717102 50.15963745 47.14717102 Z M161.15963745 47.14717102 C162.15963745 49.14717102 162.15963745 49.14717102 162.15963745 49.14717102 Z M162.15963745 49.14717102 C161.16963745 49.80717102 160.17963745 50.46717102 159.15963745 51.14717102 C159.48963745 52.13717102 159.81963745 53.12717102 160.15963745 54.14717102 C161.80963745 53.48717102 163.45963745 52.82717102 165.15963745 52.14717102 C164.16963745 51.15717102 163.17963745 50.16717102 162.15963745 49.14717102 Z M29.15963745 125.14717102 C30.15963745 127.14717102 30.15963745 127.14717102 30.15963745 127.14717102 Z M28.15963745 127.14717102 C29.15963745 130.14717102 29.15963745 130.14717102 29.15963745 130.14717102 Z M152.15963745 162.14717102 C153.15963745 164.14717102 153.15963745 164.14717102 153.15963745 164.14717102 Z M151.15963745 164.14717102 C150.72651245 164.95154602 150.29338745 165.75592102 149.84713745 166.58467102 C148.15963745 169.14717102 148.15963745 169.14717102 145.15963745 170.14717102 C146.08925168 171.2994113 147.02864995 172.44376278 147.97213745 173.58467102 C148.49420776 174.22275696 149.01627808 174.8608429 149.5541687 175.51826477 C151.16798156 177.40199852 151.16798156 177.40199852 154.15963745 178.14717102 C155.83543797 177.17510067 155.83543797 177.17510067 157.34713745 175.70967102 C158.27526245 174.86404602 159.20338745 174.01842102 160.15963745 173.14717102 C157.57853056 168.56172285 157.57853056 168.56172285 153.15963745 166.14717102 C152.49963745 165.48717102 151.83963745 164.82717102 151.15963745 164.14717102 Z M81.15963745 178.14717102 C82.15963745 180.14717102 82.15963745 180.14717102 82.15963745 180.14717102 Z M80.15963745 180.14717102 C79.82963745 180.80717102 79.49963745 181.46717102 79.15963745 182.14717102 C80.14963745 181.81717102 81.13963745 181.48717102 82.15963745 181.14717102 C81.49963745 180.81717102 80.83963745 180.48717102 80.15963745 180.14717102 Z M22.15963745 204.14717102 C23.15963745 206.14717102 23.15963745 206.14717102 23.15963745 206.14717102 Z M21.15963745 207.14717102 C22.15963745 209.14717102 22.15963745 209.14717102 22.15963745 209.14717102 Z M21.15963745 218.14717102 C22.15963745 220.14717102 22.15963745 220.14717102 22.15963745 220.14717102 Z " fill="#5A00AA" transform="translate(49.840362548828125,-0.1471710205078125)"/>
<path d="M0 0 C2.88987326 3.68410995 2.22067905 8.31196405 2.125 12.75 C2.11597656 13.54277344 2.10695312 14.33554688 2.09765625 15.15234375 C2.07417012 17.10169281 2.03830137 19.05088575 2 21 C2.495 20.505 2.495 20.505 3 20 C5.43212772 19.84576751 7.81635567 19.76833254 10.25 19.75 C11.25353516 19.7190625 11.25353516 19.7190625 12.27734375 19.6875 C16.65461285 19.65310103 19.72518428 19.97904596 23 23 C23.3125 26.1875 23.3125 26.1875 23 29 C13.48833655 34.08544382 3.94988336 39.09402018 -5.72265625 43.8671875 C-8.93909801 45.45818154 -12.12625592 47.09969198 -15.30859375 48.7578125 C-16.66343872 49.45596069 -16.66343872 49.45596069 -18.0456543 50.16821289 C-19.81893065 51.08246596 -21.58754091 52.00583927 -23.35083008 52.93920898 C-24.1580249 53.35243408 -24.96521973 53.76565918 -25.796875 54.19140625 C-26.51198242 54.56467041 -27.22708984 54.93793457 -27.96386719 55.32250977 C-30.4162032 56.13848488 -31.62582228 55.97356745 -34 55 C-34.33 54.34 -34.66 53.68 -35 53 C-33.99037137 50.60101094 -32.91978036 48.32906197 -31.73828125 46.015625 C-31.21768379 44.97580475 -31.21768379 44.97580475 -30.68656921 43.91497803 C-29.94790011 42.44369458 -29.20533343 40.97436259 -28.45922852 39.50683594 C-27.32634359 37.27724509 -26.20612706 35.04165461 -25.08789062 32.8046875 C-24.36793633 31.37462276 -23.64725548 29.94492353 -22.92578125 28.515625 C-22.42707268 27.52154633 -22.42707268 27.52154633 -21.91828918 26.50738525 C-19.86016364 22.47237302 -17.53864766 18.75942536 -15 15 C-14.34406484 13.74211426 -13.7192366 12.466705 -13.1484375 11.16796875 C-12.85453125 10.51505859 -12.560625 9.86214844 -12.2578125 9.18945312 C-11.66078825 7.83558175 -11.06445271 6.48140649 -10.46875 5.12695312 C-7.80248371 -0.78956257 -6.40950469 -1.73590752 0 0 Z M0 5 C0 9.62 0 14.24 0 19 C0.33 19 0.66 19 1 19 C1 14.38 1 9.76 1 5 C0.67 5 0.34 5 0 5 Z M-1 19 C0 21 0 21 0 21 Z " fill="#B602E4" transform="translate(42,199)"/>
<path d="M0 0 C2.45933991 0.11369211 4.9167909 0.24042651 7.375 0.375 C8.07367188 0.4059375 8.77234375 0.436875 9.4921875 0.46875 C15.38135739 0.8085098 16.97790288 2.97790288 21 7 C22.06375026 10.18420607 22.28477628 13.41731531 22.5625 16.75 C22.68818359 18.22726563 22.68818359 18.22726563 22.81640625 19.734375 C22.87699219 20.48203125 22.93757813 21.2296875 23 22 C22.34 22.33 21.68 22.66 21 23 C20.67 23.66 20.34 24.32 20 25 C16.93864803 28.49868796 14.30186451 29.85568596 9.65234375 30.37109375 C8.42644531 30.39300781 7.20054687 30.41492188 5.9375 30.4375 C4.70902344 30.47746094 3.48054687 30.51742187 2.21484375 30.55859375 C-1 30 -1 30 -2.74609375 27.53515625 C-3.36677734 26.28025391 -3.36677734 26.28025391 -4 25 C-4.99 24.67 -5.98 24.34 -7 24 C-7.72632841 10.40151818 -7.72632841 10.40151818 -3 5 C-1.98038748 3.34525891 -0.97725923 1.68010183 0 0 Z " fill="#5E01B8" transform="translate(146,91)"/>
<path d="M0 0 C0.33 0 0.66 0 1 0 C1.01030746 1.29068893 1.02061493 2.58137787 1.03123474 3.91117859 C1.13061784 16.30290139 1.23344846 28.69459185 1.33933926 41.0862608 C1.39362681 47.45113123 1.44685397 53.81600619 1.49731445 60.1809082 C1.55600677 67.56204263 1.61838608 74.94313907 1.68359375 82.32421875 C1.69414165 83.53499966 1.70468956 84.74578056 1.7155571 85.9932518 C1.83094413 98.84602666 1.98938663 111.69558242 2.29345703 124.54541016 C2.31851476 125.60473283 2.34357248 126.6640555 2.36938953 127.75547886 C2.48924289 132.70913204 2.61863613 137.66234139 2.760849 142.61540222 C2.78423529 143.49811735 2.80762157 144.38083248 2.83171654 145.29029655 C2.87488978 146.91843896 2.92238951 148.54647522 2.97519875 150.17433357 C3.06307367 153.60666012 3.11475284 156.72292967 2 160 C2.99 160 3.98 160 5 160 C5.33 160.99 5.66 161.98 6 163 C3 163 3 163 1.33504772 161.90218639 C-0.6212216 159.11487863 -0.36871621 156.95019907 -0.36076355 153.5650177 C-0.36332682 152.90908605 -0.3658901 152.2531544 -0.36853105 151.57734603 C-0.37347994 149.37529004 -0.35695873 147.17391684 -0.34057617 144.97192383 C-0.33973013 143.39514685 -0.34020459 141.81836869 -0.34190369 140.24159241 C-0.34276598 135.95667964 -0.32510248 131.67201776 -0.30418181 127.3871634 C-0.28545392 122.91084702 -0.28366765 118.43452517 -0.28010559 113.95817566 C-0.27077368 105.4796374 -0.24614441 97.0012149 -0.21605712 88.52272767 C-0.18254875 78.87110472 -0.16603608 69.21947631 -0.15097082 59.5678097 C-0.11959584 39.71180847 -0.06681309 19.85591152 0 0 Z " fill="#6D0FA0" transform="translate(43,26)"/>
<path d="M0 0 C0.66 0 1.32 0 2 0 C2.16839088 6.33526859 2.32825024 12.67071126 2.48217773 19.00634766 C2.5355498 21.16167069 2.59087537 23.31694626 2.64819336 25.47216797 C2.73023786 28.5698829 2.80525759 31.66770049 2.87890625 34.765625 C2.90594131 35.72929993 2.93297638 36.69297485 2.96083069 37.68585205 C2.98092697 38.58648376 3.00102325 39.48711548 3.02172852 40.41503906 C3.05170677 41.60084564 3.05170677 41.60084564 3.08229065 42.81060791 C2.99960281 45.01056758 2.613615 46.89148826 2 49 C2.99 49 3.98 49 5 49 C5.33 49.99 5.66 50.98 6 52 C3 52 3 52 1.33378601 50.80241394 C-0.40635869 48.45086651 -0.36301602 47.07107772 -0.34057617 44.16137695 C-0.34034958 43.1805867 -0.34012299 42.19979645 -0.33988953 41.18928528 C-0.32440567 40.13295395 -0.30892181 39.07662262 -0.29296875 37.98828125 C-0.28872391 36.90491989 -0.28447906 35.82155853 -0.28010559 34.70536804 C-0.26329569 31.24082723 -0.22563848 27.77686538 -0.1875 24.3125 C-0.17245619 21.96550318 -0.15876726 19.61849726 -0.14648438 17.27148438 C-0.11338461 11.51412495 -0.06316205 5.75710383 0 0 Z " fill="#9B1797" transform="translate(43,137)"/>
<path d="M0 0 C0.33 0 0.66 0 1 0 C1.02491316 4.81973911 1.04295998 9.63943985 1.05493164 14.45922852 C1.05992803 16.09530288 1.06672739 17.73137285 1.07543945 19.36743164 C1.16225376 36.10216541 1.16225376 36.10216541 0 44 C-0.33 44 -0.66 44 -1 44 C-2.06904036 34.9306328 -2.11830883 25.9261867 -2.0625 16.8125 C-2.05747088 15.36914219 -2.05291049 13.92578267 -2.04882812 12.48242188 C-2.0379438 8.98824495 -2.0207585 5.49413388 -2 2 C-1.34 2 -0.68 2 0 2 C0 1.34 0 0.68 0 0 Z " fill="#120295" transform="translate(254,98)"/>
<path d="M0 0 C1.65 0.33 3.3 0.66 5 1 C5 1.66 5 2.32 5 3 C26.45 3 47.9 3 70 3 C70 3.33 70 3.66 70 4 C61.33338574 4.04634609 52.66681416 4.08188074 44.000103 4.10362434 C39.97577282 4.11406032 35.95152746 4.1282161 31.92724609 4.15087891 C28.04339006 4.17261396 24.15961559 4.18457003 20.27570343 4.18975449 C18.79413825 4.19344905 17.31257751 4.20066362 15.83104706 4.21146011 C13.75543073 4.225984 11.68015118 4.22797759 9.60449219 4.22705078 C8.42312683 4.231492 7.24176147 4.23593323 6.02459717 4.24050903 C3.11011435 4.00875604 1.45616988 3.5255077 -1 2 C-0.67 1.34 -0.34 0.68 0 0 Z " fill="#A502F1" transform="translate(86,232)"/>
<path d="M0 0 C0.99 0.495 0.99 0.495 2 1 C2.34236817 3.63474634 2.5601624 6.16619315 2.6875 8.8125 C2.75807617 9.90014648 2.75807617 9.90014648 2.83007812 11.00976562 C3.02540179 14.5095814 3.1658794 17.66015 2 21 C2.99 21 3.98 21 5 21 C5.33 21.99 5.66 22.98 6 24 C3 24 3 24 1.33081055 22.80541992 C-0.41319306 20.43944915 -0.34604785 19.03263193 -0.29296875 16.11328125 C-0.28330078 15.17548828 -0.27363281 14.23769531 -0.26367188 13.27148438 C-0.23853516 12.29501953 -0.21339844 11.31855469 -0.1875 10.3125 C-0.17396484 9.32443359 -0.16042969 8.33636719 -0.14648438 7.31835938 C-0.11112203 4.87835769 -0.06177033 2.43945281 0 0 Z " fill="#A511D1" transform="translate(43,165)"/>
<path d="M0 0 C0.66 0.33 1.32 0.66 2 1 C1.50628906 1.54269531 1.01257813 2.08539063 0.50390625 2.64453125 C-0.13675781 3.35996094 -0.77742188 4.07539063 -1.4375 4.8125 C-2.07558594 5.52019531 -2.71367188 6.22789062 -3.37109375 6.95703125 C-5.19086012 8.99896152 -5.19086012 8.99896152 -6 12 C-8.5625 13.1875 -8.5625 13.1875 -11 14 C-11 13.01 -11 12.02 -11 11 C-10.34 10.67 -9.68 10.34 -9 10 C-8.67 9.34 -8.34 8.68 -8 8 C-7.34 7.34 -6.68 6.68 -6 6 C-5.566875 5.01 -5.566875 5.01 -5.125 4 C-3.74836769 1.55265366 -2.62864939 0.90359823 0 0 Z " fill="#9A09C6" transform="translate(90,179)"/>
<path d="M0 0 C2.6635969 0.35994553 4.58183452 0.71161002 6.8125 2.25 C8.39364795 4.58011277 8.22337696 6.24501755 8 9 C6.35 9.33 4.7 9.66 3 10 C2.95745644 8.00045254 2.95919217 5.99958364 3 4 C3.33 3.67 3.66 3.34 4 3 C2.68 2.34 1.36 1.68 0 1 C0 0.67 0 0.34 0 0 Z " fill="#AF06D5" transform="translate(57,219)"/>
<path d="M0 0 C0.99 0.66 1.98 1.32 3 2 C1.52307692 7.66153846 1.52307692 7.66153846 -1.125 9.375 C-1.74375 9.58125 -2.3625 9.7875 -3 10 C-4 7 -4 7 -3.22265625 5.17578125 C-2.1484375 3.45052083 -1.07421875 1.72526042 0 0 Z " fill="#A506D6" transform="translate(77,193)"/>
<path d="M0 0 C1.65 0.33 3.3 0.66 5 1 C5 1.66 5 2.32 5 3 C9.29 3 13.58 3 18 3 C18 3.33 18 3.66 18 4 C15.58303128 4.05411124 13.16728213 4.09372278 10.75 4.125 C10.06808594 4.14175781 9.38617188 4.15851563 8.68359375 4.17578125 C4.9391765 4.21213482 2.17647273 4.07944349 -1 2 C-0.67 1.34 -0.34 0.68 0 0 Z " fill="#B805E8" transform="translate(86,232)"/>
<path d="M0 0 C1.13199353 0.9080162 2.25532363 1.82683826 3.375 2.75 C4.00148437 3.26046875 4.62796875 3.7709375 5.2734375 4.296875 C7.08312318 6.08199481 8.00117455 7.67949644 9 10 C7.68 10 6.36 10 5 10 C5 9.01 5 8.02 5 7 C4.01 7 3.02 7 2 7 C1.855625 6.401875 1.71125 5.80375 1.5625 5.1875 C1.1127561 3.43849596 0.57107659 1.71322977 0 0 Z " fill="#0A0183" transform="translate(219,23)"/>
<path d="M0 0 C0.99 0.33 1.98 0.66 3 1 C2.75 2.875 2.75 2.875 2 5 C-0.0625 6.25 -0.0625 6.25 -2 7 C-2.33 6.34 -2.66 5.68 -3 5 C-3.99 5 -4.98 5 -6 5 C-4.06745228 2.9754262 -2.36841312 1.57894208 0 0 Z " fill="#8205CB" transform="translate(141,174)"/>
<path d="M0 0 C1.12377697 3.30435084 0.89554742 5.0506862 -0.4375 8.25 C-0.72496094 8.95640625 -1.01242188 9.6628125 -1.30859375 10.390625 C-1.53675781 10.92171875 -1.76492187 11.4528125 -2 12 C-3.06546953 8.8035914 -3.07427838 6.34252724 -3 3 C-2.01 2.67 -1.02 2.34 0 2 C0 1.34 0 0.68 0 0 Z " fill="#330594" transform="translate(248,161)"/>
<path d="M0 0 C-1.25 2 -1.25 2 -3 4 C-4.32 4 -5.64 4 -7 4 C-6.625 2.0625 -6.625 2.0625 -6 0 C-3.50907189 -1.24546405 -2.58919267 -0.7767578 0 0 Z " fill="#BF06E8" transform="translate(40,199)"/>
<path d="M0 0 C0.99 0 1.98 0 3 0 C2.49396008 2.16874252 2.00016187 3.99967627 1 6 C1.66 6.33 2.32 6.66 3 7 C1.68 7.33 0.36 7.66 -1 8 C-1.33 6.68 -1.66 5.36 -2 4 C-1.34 3.67 -0.68 3.34 0 3 C0 2.01 0 1.02 0 0 Z " fill="#C504EC" transform="translate(11,247)"/>
<path d="M0 0 C5.94 0 11.88 0 18 0 C18 0.33 18 0.66 18 1 C12.06 1 6.12 1 0 1 C0 0.67 0 0.34 0 0 Z " fill="#51049F" transform="translate(112,98)"/>
<path d="M0 0 C3.37503669 1.1858237 5.64722731 2.27573689 8 5 C7.236875 4.814375 6.47375 4.62875 5.6875 4.4375 C2.91032625 3.77180827 2.91032625 3.77180827 0 5 C0 3.35 0 1.7 0 0 Z " fill="#12017F" transform="translate(201,11)"/>
<path d="M0 0 C0.66 0.33 1.32 0.66 2 1 C-0.31 3.31 -2.62 5.62 -5 8 C-5 5 -5 5 -2.5 2.3125 C-1.675 1.549375 -0.85 0.78625 0 0 Z " fill="#770DA7" transform="translate(105,160)"/>
<path d="M0 0 C0.33 0 0.66 0 1 0 C1 4.29 1 8.58 1 13 C0.67 13 0.34 13 0 13 C0 8.71 0 4.42 0 0 Z " fill="#4E0E8A" transform="translate(161,133)"/>
<path d="M0 0 C0.33 0 0.66 0 1 0 C1 2.64 1 5.28 1 8 C0.67 8 0.34 8 0 8 C0 5.36 0 2.72 0 0 Z " fill="#7D0EA1" transform="translate(137,161)"/>
<path d="M0 0 C0.33 0 0.66 0 1 0 C1 2.64 1 5.28 1 8 C0.67 8 0.34 8 0 8 C0 5.36 0 2.72 0 0 Z " fill="#550CB1" transform="translate(137,102)"/>
<path d="M0 0 C0.33 0 0.66 0 1 0 C1 2.31 1 4.62 1 7 C0.67 7 0.34 7 0 7 C0 4.69 0 2.38 0 0 Z " fill="#7F0DD3" transform="translate(103,138)"/>
<path d="M0 0 C2.31 0 4.62 0 7 0 C7 0.33 7 0.66 7 1 C4.69 1 2.38 1 0 1 C0 0.67 0 0.34 0 0 Z " fill="#5C0199" transform="translate(150,122)"/>
<path d="M0 0 C0.33 0 0.66 0 1 0 C1 2.31 1 4.62 1 7 C0.67 7 0.34 7 0 7 C0 4.69 0 2.38 0 0 Z " fill="#430C96" transform="translate(169,103)"/>
<path d="M0 0 C1.98 0 3.96 0 6 0 C6 0.33 6 0.66 6 1 C4.02 1 2.04 1 0 1 C0 0.67 0 0.34 0 0 Z " fill="#DC07EE" transform="translate(50,218)"/>
<path d="M0 0 C1.98 0 3.96 0 6 0 C6 0.33 6 0.66 6 1 C4.02 1 2.04 1 0 1 C0 0.67 0 0.34 0 0 Z " fill="#6D04CA" transform="translate(125,154)"/>
<path d="M0 0 C1.65 0 3.3 0 5 0 C5 0.33 5 0.66 5 1 C3.35 1 1.7 1 0 1 C0 0.67 0 0.34 0 0 Z " fill="#8404CF" transform="translate(116,156)"/>
<path d="M0 0 C1.65 0 3.3 0 5 0 C5 0.33 5 0.66 5 1 C3.35 1 1.7 1 0 1 C0 0.67 0 0.34 0 0 Z " fill="#36067C" transform="translate(149,90)"/>
<path d="M0 0 C0.33 0 0.66 0 1 0 C1 1.65 1 3.3 1 5 C0.67 5 0.34 5 0 5 C0 3.35 0 1.7 0 0 Z " fill="#11066B" transform="translate(191,69)"/>
<path d="M0 0 C1 4 1 4 1 4 Z " fill="#5908B2" transform="translate(160,147)"/>
<path d="M0 0 C1 4 1 4 1 4 Z " fill="#660BBA" transform="translate(104,134)"/>
<path d="M0 0 C1 4 1 4 1 4 Z " fill="#9519C9" transform="translate(105,130)"/>
<path d="M0 0 C4 1 4 1 4 1 Z " fill="#620983" transform="translate(96,122)"/>
<path d="M0 0 C4 1 4 1 4 1 Z " fill="#9E05D3" transform="translate(90,122)"/>
<path d="M0 0 C1 4 1 4 1 4 Z " fill="#2C057A" transform="translate(188,82)"/>
<path d="M0 0 C1 4 1 4 1 4 Z " fill="#260381" transform="translate(190,74)"/>
<path d="M0 0 C4 1 4 1 4 1 Z " fill="#1D018E" transform="translate(185,68)"/>
<path d="M0 0 C0.99 0.33 1.98 0.66 3 1 C2.01 1 1.02 1 0 1 C0 0.67 0 0.34 0 0 Z " fill="#16018A" transform="translate(101,51)"/>
<path d="M0 0 C3 1 3 1 3 1 Z " fill="#A30CBF" transform="translate(50,190)"/>
<path d="M0 0 C0.99 0.495 0.99 0.495 2 1 C1.01 1.495 1.01 1.495 0 2 C0 1.34 0 0.68 0 0 Z " fill="#2F0461" transform="translate(204,174)"/>
<path d="" fill="#A90BB7" transform="translate(0,0)"/>
<path d="M0 0 C3 1 3 1 3 1 Z " fill="#8B12B6" transform="translate(121,155)"/>
<path d="" fill="#430AB6" transform="translate(0,0)"/>
<path d="" fill="#7502BE" transform="translate(0,0)"/>
<path d="" fill="#760ACC" transform="translate(0,0)"/>
<path d="M0 0 C3 1 3 1 3 1 Z " fill="#76127D" transform="translate(87,123)"/>
<path d="M0 0 C3 1 3 1 3 1 Z " fill="#5B0E9E" transform="translate(147,121)"/>
<path d="M0 0 C3 1 3 1 3 1 Z " fill="#4800B6" transform="translate(104,100)"/>
<path d="M0 0 C3 1 3 1 3 1 Z " fill="#450E90" transform="translate(108,99)"/>
<path d="" fill="#23007F" transform="translate(0,0)"/>
<path d="" fill="#250576" transform="translate(0,0)"/>
<path d="M0 0 C3 1 3 1 3 1 Z " fill="#51019E" transform="translate(155,90)"/>
<path d="" fill="#1C0D56" transform="translate(0,0)"/>
<path d="" fill="#2A0E80" transform="translate(0,0)"/>
<path d="M0 0 C3 1 3 1 3 1 Z " fill="#3E0AAF" transform="translate(164,74)"/>
<path d="M0 0 C3 1 3 1 3 1 Z " fill="#230381" transform="translate(170,72)"/>
<path d="M0 0 C3 1 3 1 3 1 Z " fill="#200576" transform="translate(173,71)"/>
<path d="M0 0 C3 1 3 1 3 1 Z " fill="#220099" transform="translate(177,70)"/>
<path d="M0 0 C3 1 3 1 3 1 Z " fill="#2A0A78" transform="translate(181,69)"/>
<path d="" fill="#B206F1" transform="translate(0,0)"/>
<path d="M0 0 C2 1 2 1 2 1 Z " fill="#F401FB" transform="translate(37,196)"/>
<path d="" fill="#7E02DE" transform="translate(0,0)"/>
<path d="" fill="#9103CA" transform="translate(0,0)"/>
<path d="M0 0 C2 1 2 1 2 1 Z " fill="#E714F9" transform="translate(144,172)"/>
<path d="" fill="#8B0DD0" transform="translate(0,0)"/>
<path d="" fill="#701697" transform="translate(0,0)"/>
<path d="" fill="#691DA7" transform="translate(0,0)"/>
<path d="" fill="#6607D0" transform="translate(0,0)"/>
<path d="M0 0 C2 1 2 1 2 1 Z " fill="#550799" transform="translate(131,155)"/>
<path d="M0 0 C2 1 2 1 2 1 Z " fill="#6216B6" transform="translate(114,155)"/>
<path d="" fill="#5721AA" transform="translate(0,0)"/>
<path d="M0 0 C2 1 2 1 2 1 Z " fill="#AB07C4" transform="translate(83,125)"/>
<path d="M0 0 C2 1 2 1 2 1 Z " fill="#AA08D4" transform="translate(85,124)"/>
<path d="" fill="#700AC1" transform="translate(0,0)"/>
<path d="" fill="#6200AD" transform="translate(0,0)"/>
<path d="M0 0 C2 1 2 1 2 1 Z " fill="#580597" transform="translate(157,121)"/>
<path d="" fill="#6D02C2" transform="translate(0,0)"/>
<path d="" fill="#470E77" transform="translate(0,0)"/>
<path d="M0 0 C2 1 2 1 2 1 Z " fill="#4C09BE" transform="translate(98,103)"/>
<path d="M0 0 C2 1 2 1 2 1 Z " fill="#470793" transform="translate(100,102)"/>
<path d="" fill="#3601A1" transform="translate(0,0)"/>
<path d="" fill="#4F03A2" transform="translate(0,0)"/>
<path d="" fill="#700BC3" transform="translate(0,0)"/>
<path d="M0 0 C2 1 2 1 2 1 Z " fill="#63138F" transform="translate(102,101)"/>
<path d="" fill="#4A1575" transform="translate(0,0)"/>
<path d="" fill="#2A06BC" transform="translate(0,0)"/>
<path d="M0 0 C2 1 2 1 2 1 Z " fill="#560398" transform="translate(158,91)"/>
<path d="M0 0 C2 1 2 1 2 1 Z " fill="#390B87" transform="translate(152,80)"/>
<path d="M0 0 C2 1 2 1 2 1 Z " fill="#320877" transform="translate(162,75)"/>
<path d="M0 0 C2 1 2 1 2 1 Z " fill="#320D82" transform="translate(167,73)"/>
<path d="" fill="#C615F0" transform="translate(0,0)"/>
<path d="" fill="#A000E6" transform="translate(0,0)"/>
<path d="" fill="#8300B2" transform="translate(0,0)"/>
<path d="" fill="#F607FF" transform="translate(0,0)"/>
<path d="" fill="#3B0060" transform="translate(0,0)"/>
<path d="" fill="#A210B2" transform="translate(0,0)"/>
<path d="" fill="#8F10ED" transform="translate(0,0)"/>
<path d="" fill="#7F0FBD" transform="translate(0,0)"/>
<path d="" fill="#C301D6" transform="translate(0,0)"/>
<path d="" fill="#EB18EE" transform="translate(0,0)"/>
<path d="" fill="#6C17B5" transform="translate(0,0)"/>
<path d="" fill="#BE1AF2" transform="translate(0,0)"/>
<path d="" fill="#520091" transform="translate(0,0)"/>
<path d="" fill="#7908A4" transform="translate(0,0)"/>
<path d="" fill="#A30ACF" transform="translate(0,0)"/>
<path d="" fill="#5C078E" transform="translate(0,0)"/>
<path d="" fill="#9402F8" transform="translate(0,0)"/>
<path d="" fill="#7209F2" transform="translate(0,0)"/>
<path d="" fill="#9405D0" transform="translate(0,0)"/>
<path d="" fill="#9E15F7" transform="translate(0,0)"/>
<path d="" fill="#400C8A" transform="translate(0,0)"/>
<path d="" fill="#A014CE" transform="translate(0,0)"/>
<path d="" fill="#9505CE" transform="translate(0,0)"/>
<path d="" fill="#51018E" transform="translate(0,0)"/>
<path d="" fill="#9F00E6" transform="translate(0,0)"/>
<path d="" fill="#8F0EAC" transform="translate(0,0)"/>
<path d="" fill="#9A09D1" transform="translate(0,0)"/>
<path d="" fill="#8500CC" transform="translate(0,0)"/>
<path d="" fill="#5C11B2" transform="translate(0,0)"/>
<path d="" fill="#6B0797" transform="translate(0,0)"/>
<path d="" fill="#9816D4" transform="translate(0,0)"/>
<path d="" fill="#8C09D9" transform="translate(0,0)"/>
<path d="" fill="#430589" transform="translate(0,0)"/>
<path d="" fill="#7A09A6" transform="translate(0,0)"/>
<path d="" fill="#7A09B4" transform="translate(0,0)"/>
<path d="" fill="#9317CB" transform="translate(0,0)"/>
<path d="" fill="#420286" transform="translate(0,0)"/>
<path d="" fill="#7A08AA" transform="translate(0,0)"/>
<path d="" fill="#9322DC" transform="translate(0,0)"/>
<path d="" fill="#740E9D" transform="translate(0,0)"/>
<path d="" fill="#740AA7" transform="translate(0,0)"/>
<path d="" fill="#5E10A2" transform="translate(0,0)"/>
<path d="" fill="#5B12A1" transform="translate(0,0)"/>
<path d="" fill="#680B96" transform="translate(0,0)"/>
<path d="" fill="#790FB4" transform="translate(0,0)"/>
<path d="" fill="#7B10A9" transform="translate(0,0)"/>
<path d="" fill="#7711AA" transform="translate(0,0)"/>
<path d="" fill="#941BC1" transform="translate(0,0)"/>
<path d="" fill="#800CB3" transform="translate(0,0)"/>
<path d="" fill="#8315C0" transform="translate(0,0)"/>
<path d="" fill="#701C8C" transform="translate(0,0)"/>
<path d="" fill="#650290" transform="translate(0,0)"/>
<path d="" fill="#521288" transform="translate(0,0)"/>
<path d="" fill="#5A0873" transform="translate(0,0)"/>
<path d="" fill="#B928BC" transform="translate(0,0)"/>
<path d="" fill="#890A93" transform="translate(0,0)"/>
<path d="" fill="#A017C0" transform="translate(0,0)"/>
<path d="" fill="#8D05BA" transform="translate(0,0)"/>
<path d="" fill="#51048D" transform="translate(0,0)"/>
<path d="" fill="#4C0192" transform="translate(0,0)"/>
<path d="" fill="#570BA2" transform="translate(0,0)"/>
<path d="" fill="#B707CC" transform="translate(0,0)"/>
<path d="" fill="#3F0180" transform="translate(0,0)"/>
<path d="" fill="#490784" transform="translate(0,0)"/>
<path d="" fill="#550CB9" transform="translate(0,0)"/>
<path d="" fill="#4400A2" transform="translate(0,0)"/>
<path d="" fill="#500DB5" transform="translate(0,0)"/>
<path d="" fill="#130016" transform="translate(0,0)"/>
<path d="" fill="#2B086A" transform="translate(0,0)"/>
<path d="" fill="#4E0A92" transform="translate(0,0)"/>
<path d="" fill="#5107A5" transform="translate(0,0)"/>
<path d="" fill="#770DC0" transform="translate(0,0)"/>
<path d="" fill="#5C089C" transform="translate(0,0)"/>
<path d="" fill="#6002AA" transform="translate(0,0)"/>
<path d="" fill="#5A099D" transform="translate(0,0)"/>
<path d="" fill="#6008A8" transform="translate(0,0)"/>
<path d="" fill="#7C0799" transform="translate(0,0)"/>
<path d="" fill="#3F0F7F" transform="translate(0,0)"/>
<path d="" fill="#6410B4" transform="translate(0,0)"/>
<path d="" fill="#730BD8" transform="translate(0,0)"/>
<path d="" fill="#9119D1" transform="translate(0,0)"/>
<path d="" fill="#6610DC" transform="translate(0,0)"/>
<path d="" fill="#47077C" transform="translate(0,0)"/>
<path d="" fill="#8A12B1" transform="translate(0,0)"/>
<path d="" fill="#4E0B7A" transform="translate(0,0)"/>
<path d="" fill="#650C91" transform="translate(0,0)"/>
<path d="" fill="#8A07AC" transform="translate(0,0)"/>
<path d="" fill="#41009D" transform="translate(0,0)"/>
<path d="" fill="#84007D" transform="translate(0,0)"/>
<path d="" fill="#3C02BC" transform="translate(0,0)"/>
<path d="" fill="#A812D2" transform="translate(0,0)"/>
<path d="" fill="#48069A" transform="translate(0,0)"/>
<path d="" fill="#3A0194" transform="translate(0,0)"/>
<path d="" fill="#370079" transform="translate(0,0)"/>
<path d="" fill="#310592" transform="translate(0,0)"/>
<path d="" fill="#571299" transform="translate(0,0)"/>
<path d="" fill="#5A08CB" transform="translate(0,0)"/>
<path d="" fill="#5801A1" transform="translate(0,0)"/>
<path d="" fill="#480096" transform="translate(0,0)"/>
<path d="" fill="#6E01A5" transform="translate(0,0)"/>
<path d="" fill="#5200B3" transform="translate(0,0)"/>
<path d="" fill="#5C05C4" transform="translate(0,0)"/>
<path d="" fill="#440B82" transform="translate(0,0)"/>
<path d="" fill="#0E006A" transform="translate(0,0)"/>
<path d="" fill="#3B1277" transform="translate(0,0)"/>
<path d="" fill="#0F0163" transform="translate(0,0)"/>
<path d="" fill="#270082" transform="translate(0,0)"/>
<path d="" fill="#4002AD" transform="translate(0,0)"/>
</svg>
